<?xml version="1.0" encoding="utf-8"?>
<!-- Svg Vector Icons : http://www.onlinewebfonts.com/icon -->
<!DOCTYPE svg PUBLIC "-//W3C//DTD SVG 1.1//EN" "http://www.w3.org/Graphics/SVG/1.1/DTD/svg11.dtd">
<svg version="1.1" xmlns="http://www.w3.org/2000/svg" xmlns:xlink="http://www.w3.org/1999/xlink" x="0px" y="0px" viewBox="0 0 256 256" enable-background="new 0 0 256 256" xml:space="preserve">
<metadata> Svg Vector Icons : http://www.onlinewebfonts.com/icon </metadata>
<g><g><g><path fill="#000000" d="M214.1,57.9h-2.3V40.7c0-3.4-2.7-6.1-6.1-6.1c-3.4,0-6.1,2.7-6.1,6.1v17.3h-14.1c-0.9-5.9-5.9-10.4-12-10.4c-6.1,0-11.1,4.5-12,10.4h-16.6c6.8-4.7,11.3-12.6,11.3-21.6c0-14.5-11.8-26.3-26.3-26.3c-14.5,0-26.3,11.8-26.3,26.3c0,9,4.5,16.8,11.3,21.6H98.3c-0.9-5.9-5.9-10.4-12-10.4c-6.1,0-11.1,4.5-12,10.4H56.3V40.6c0-3.4-2.7-6.1-6.1-6.1s-6.1,2.7-6.1,6.1v17.3h-2.3c-3.4,0-6.1,2.7-6.1,6.1c0,3.4,2.7,6.1,6.1,6.1h2.3v169.8c0,3.4,2.7,6.1,6.1,6.1s6.1-2.7,6.1-6.1V70.1h19.4c1.2,3.3,2.9,6.2,5.4,8.4c4.7,4.2,10.3,5.3,15.8,5.3c1.8,0,3.5-0.1,5.3-0.3V199c0,6.7,5.5,12.2,12.2,12.2s12.2-5.5,12.2-12.2v-50h6.7v50.1c0,6.7,5.5,12.2,12.2,12.2c6.7,0,12.2-5.5,12.2-12.2V83.6c1.7,0.1,3.5,0.3,5.2,0.3c5.6,0,11.1-1.1,15.8-5.3c2.5-2.2,4.3-5.1,5.4-8.4h15.5v169.8c0,3.4,2.7,6.1,6.1,6.1c3.4,0,6.1-2.7,6.1-6.1V70.1h2.3c3.4,0,6.1-2.7,6.1-6.1C220.2,60.6,217.5,57.9,214.1,57.9z"/></g><g></g><g></g><g></g><g></g><g></g><g></g><g></g><g></g><g></g><g></g><g></g><g></g><g></g><g></g><g></g></g></g>
</svg>