<?xml version="1.0" encoding="utf-8"?>
<!-- Svg Vector Icons : http://www.onlinewebfonts.com/icon -->
<!DOCTYPE svg PUBLIC "-//W3C//DTD SVG 1.1//EN" "http://www.w3.org/Graphics/SVG/1.1/DTD/svg11.dtd">
<svg version="1.1" xmlns="http://www.w3.org/2000/svg" xmlns:xlink="http://www.w3.org/1999/xlink" x="0px" y="0px" viewBox="0 0 256 256" enable-background="new 0 0 256 256" xml:space="preserve">
<metadata> Svg Vector Icons : http://www.onlinewebfonts.com/icon </metadata>
<g><g><g><path fill="#000000" d="M206.9,31.4h-2.1V15.6c0-3.1-2.5-5.6-5.6-5.6c-3.1,0-5.6,2.5-5.6,5.6v15.8h-17.4c-2-2.3-5-3.7-8.3-3.7c-3.3,0-6.2,1.4-8.3,3.7H96.3c-2-2.3-5-3.7-8.3-3.7s-6.2,1.4-8.3,3.7H62.3V15.6c0-3.1-2.5-5.6-5.6-5.6c-3.1,0-5.6,2.5-5.6,5.6v15.8h-2.1c-3.1,0-5.6,2.5-5.6,5.6c0,3.1,2.5,5.6,5.6,5.6h2.1v197.8c0,3.1,2.5,5.6,5.6,5.6c3.1,0,5.6-2.5,5.6-5.6V42.6h14.5v31.9c0,17.7,10.8,32.7,25.7,37.8v108.5c0,6.2,5,11.2,11.2,11.2s11.2-5,11.2-11.2v-45.9h6.1v45.9c0,6.2,5,11.2,11.2,11.2c6.2,0,11.2-5,11.2-11.2V112.3c14.9-5.1,25.7-20.1,25.7-37.8V42.6h14.5v197.8c0,3.1,2.5,5.6,5.6,5.6c3.1,0,5.6-2.5,5.6-5.6V42.6h2.1c3.1,0,5.6-2.5,5.6-5.6C212.5,33.9,210,31.4,206.9,31.4z M156.8,74.5c0,9.5-6.5,17.3-14.5,17.3h-0.9c6.5-4.3,10.8-11.7,10.8-20.1c0-13.3-10.8-24.1-24.1-24.1c-13.3,0-24.1,10.8-24.1,24.1c0,8.4,4.3,15.8,10.8,20.1h-0.9c-8,0-14.5-7.8-14.5-17.3V42.6h57.5L156.8,74.5L156.8,74.5z"/></g><g></g><g></g><g></g><g></g><g></g><g></g><g></g><g></g><g></g><g></g><g></g><g></g><g></g><g></g><g></g></g></g>
</svg>