<?xml version="1.0" encoding="UTF-8" standalone="no"?>
<svg
   id="visual"
   width="675"
   height="900"
   version="1.1"
   sodipodi:docname="WavesPurple.svg"
   xmlns:inkscape="http://www.inkscape.org/namespaces/inkscape"
   xmlns:sodipodi="http://sodipodi.sourceforge.net/DTD/sodipodi-0.dtd"
   xmlns="http://www.w3.org/2000/svg"
   xmlns:svg="http://www.w3.org/2000/svg">
  <defs
     id="defs1105" />
  <sodipodi:namedview
     id="namedview1103"
     pagecolor="#ffffff"
     bordercolor="#000000"
     borderopacity="0.25"
     inkscape:showpageshadow="2"
     inkscape:pageopacity="0.0"
     inkscape:pagecheckerboard="0"
     inkscape:deskcolor="#d1d1d1"
     showgrid="false" />
  <path
     d="m 373.09588,67.067613 4.62309,15.651449 h 14.9172 l -12.08169,9.67173 4.62309,15.651448 -12.08169,-9.671728 -12.08169,9.671728 4.6231,-15.651448 -12.0817,-9.67173 h 14.9172 z"
     id="path810"
     style="fill:#6c32af;fill-opacity:1;stroke-width:0.215731" />
  <path
     d="m 134.14628,317.57238 3.78548,12.81574 h 12.21452 l -9.89274,7.91941 3.78548,12.81574 -9.89274,-7.91942 -9.89274,7.91942 3.78549,-12.81574 -9.89275,-7.91941 h 12.21452 z"
     id="path810-3"
     style="fill:#b22cc2;fill-opacity:1;stroke-width:0.176645" />
  <path
     d="m 229.84719,481.43594 2.36593,8.00984 h 7.63407 l -6.18296,4.94963 2.36592,8.00983 -6.18296,-4.94963 -6.18296,4.94963 2.36593,-8.00983 -6.18297,-4.94963 h 7.63407 z"
     id="path810-3-0"
     style="fill:#6c32af;fill-opacity:1;stroke-width:0.110403" />
  <path
     d="m 409.51941,420.55747 3.78548,12.81574 h 12.21452 l -9.89274,7.91941 3.78548,12.81574 -9.89274,-7.91942 -9.89274,7.91942 3.78549,-12.81574 -9.89275,-7.91941 h 12.21452 z"
     id="path810-3-0-9"
     style="fill:#b22cc2;fill-opacity:1;stroke-width:0.176645" />
  <path
     d="m 579.26568,607.49776 2.36593,8.00984 h 7.63407 l -6.18296,4.94963 2.36592,8.00983 -6.18296,-4.94963 -6.18296,4.94963 2.36593,-8.00983 -6.18297,-4.94963 h 7.63407 z"
     id="path810-3-0-9-9"
     style="fill:#6c32af;fill-opacity:1;stroke-width:0.110403" />
  <path
     d="m 437.9728,644.70968 7.09779,24.02951 h 22.90221 l -18.54889,14.8489 7.09778,24.02951 -18.54889,-14.84891 -18.54889,14.84891 7.0978,-24.02951 -18.54891,-14.8489 h 22.90221 z"
     id="path810-3-0-9-9-9"
     style="fill:#f70fca;fill-opacity:1;stroke-width:0.331209" />
  <path
     d="m 123.06843,641.73558 4.62309,15.65145 h 14.9172 l -12.08169,9.67173 4.62309,15.65145 -12.08169,-9.67173 -12.08169,9.67173 4.6231,-15.65145 -12.0817,-9.67173 h 14.9172 z"
     id="path810-3-0-9-9-9-4"
     style="fill:#6c32af;fill-opacity:1;stroke-width:0.215731" />
  <path
     d="m 245.80975,788.42397 2.36593,8.00984 h 7.63407 l -6.18296,4.94963 2.36592,8.00983 -6.18296,-4.94963 -6.18296,4.94963 2.36593,-8.00983 -6.18297,-4.94963 h 7.63407 z"
     id="path810-3-0-9-9-9-4-2"
     style="fill:#b22cc2;fill-opacity:1;stroke-width:0.110403" />
  <path
     d="m 530.01195,166.45298 2.36588,8.00981 h 7.63412 l -6.183,4.94967 2.366,8.00981 -6.183,-4.9496 -6.183,4.9496 2.366,-8.00981 -6.183,-4.94967 h 7.63412 z"
     id="path810-3-0-9-9-9-4-2-3"
     style="fill:#b22cc2;fill-opacity:1;stroke-width:0.110404" />
  <path
     d="m 206.70922,162.37596 7.0978,24.17323 h 22.90221 l -18.54889,14.93773 7.09778,24.17324 -18.5489,-14.93773 -18.54888,14.93773 7.09778,-24.17324 -18.54889,-14.93773 h 22.9022 z"
     id="path810-7"
     style="fill:#f70fca;fill-opacity:1;stroke-width:0.3322" />
  <path
     d="m 521.36086,301.29135 3.78548,12.89239 h 12.21452 l -9.89275,7.96679 3.78549,12.89239 -9.89274,-7.96679 -9.89274,7.96679 3.78549,-12.89239 -9.89275,-7.96679 h 12.21451 z"
     id="path810-7-6"
     style="fill:#6c32af;fill-opacity:1;stroke-width:0.177173" />
</svg>
