<?xml version="1.0" encoding="UTF-8" standalone="no"?>
<svg
   id="visual"
   width="675"
   height="900"
   version="1.1"
   sodipodi:docname="StarsPurple.svg"
   inkscape:version="1.2.2 (732a01da63, 2022-12-09)"
   inkscape:export-filename="StarsOrange.svg"
   inkscape:export-xdpi="96"
   inkscape:export-ydpi="96"
   xmlns:inkscape="http://www.inkscape.org/namespaces/inkscape"
   xmlns:sodipodi="http://sodipodi.sourceforge.net/DTD/sodipodi-0.dtd"
   xmlns="http://www.w3.org/2000/svg"
   xmlns:svg="http://www.w3.org/2000/svg">
  <defs
     id="defs1105" />
  <sodipodi:namedview
     id="namedview1103"
     pagecolor="#ffffff"
     bordercolor="#000000"
     borderopacity="0.25"
     inkscape:showpageshadow="2"
     inkscape:pageopacity="0.0"
     inkscape:pagecheckerboard="0"
     inkscape:deskcolor="#d1d1d1"
     showgrid="false"
     inkscape:zoom="0.89333333"
     inkscape:cx="337.5"
     inkscape:cy="511.00746"
     inkscape:window-width="1920"
     inkscape:window-height="991"
     inkscape:window-x="-9"
     inkscape:window-y="-9"
     inkscape:window-maximized="1"
     inkscape:current-layer="visual" />
  <path
     d="m 363.55559,67.067613 2.36593,8.009835 h 7.63407 l -6.18297,4.949634 2.36594,8.009834 -6.18297,-4.949634 -6.18297,4.949634 2.36594,-8.009834 -6.18297,-4.949634 h 7.63407 z"
     id="path810"
     style="fill:#009598;fill-opacity:1;stroke-width:0.110403" />
  <path
     d="m 283.76866,340.44819 2.36593,8.00984 h 7.63407 l -6.18297,4.94963 2.36594,8.00984 -6.18297,-4.94964 -6.18297,4.94964 2.36594,-8.00984 -6.18297,-4.94963 h 7.63407 z"
     id="path810-1"
     style="fill:#009598;fill-opacity:1;stroke-width:0.110403" />
  <path
     d="m 360.44777,170.85863 2.36593,8.00984 h 7.63407 l -6.18297,4.94963 2.36594,8.00984 -6.18297,-4.94964 -6.18297,4.94964 2.36594,-8.00984 -6.18297,-4.94963 h 7.63407 z"
     id="path810-1-8"
     style="fill:#009598;fill-opacity:1;stroke-width:0.110403" />
  <path
     d="m 445.52238,526.06406 3.54889,12.01475 h 11.45111 l -9.27445,7.42446 3.5489,12.01475 -9.27445,-7.42445 -9.27445,7.42445 3.5489,-12.01475 -9.27445,-7.42446 h 11.45111 z"
     id="path810-0"
     style="fill:#009598;fill-opacity:1;stroke-width:0.165605" />
  <path
     d="m 164.60897,346.67686 3.3123,11.21377 h 10.6877 l -8.65615,6.92949 3.3123,11.21377 -8.65615,-6.92949 -8.65615,6.92949 3.31231,-11.21377 -8.65616,-6.92949 h 10.6877 z"
     id="path810-3"
     style="fill:#00db78;fill-opacity:1;stroke-width:0.154564" />
  <path
     d="m 229.84719,481.43594 2.36593,8.00984 h 7.63407 l -6.18296,4.94963 2.36592,8.00983 -6.18296,-4.94963 -6.18296,4.94963 2.36593,-8.00983 -6.18297,-4.94963 h 7.63407 z"
     id="path810-3-0"
     style="fill:#009598;fill-opacity:1;stroke-width:0.110403" />
  <path
     d="m 409.51941,420.55747 3.78548,12.81574 h 12.21452 l -9.89274,7.91941 3.78548,12.81574 -9.89274,-7.91942 -9.89274,7.91942 3.78549,-12.81574 -9.89275,-7.91941 h 12.21452 z"
     id="path810-3-0-9"
     style="fill:#00db78;fill-opacity:1;stroke-width:0.176645" />
  <path
     d="m 579.26568,607.49776 2.36593,8.00984 h 7.63407 l -6.18296,4.94963 2.36592,8.00983 -6.18296,-4.94963 -6.18296,4.94963 2.36593,-8.00983 -6.18297,-4.94963 h 7.63407 z"
     id="path810-3-0-9-9"
     style="fill:#009598;fill-opacity:1;stroke-width:0.110403" />
  <path
     d="m 420.4728,644.70968 2.95741,10.0123 h 9.54259 l -7.7287,6.18704 2.9574,10.01229 -7.7287,-6.18704 -7.7287,6.18704 2.95741,-10.01229 -7.72871,-6.18704 h 9.54259 z"
     id="path810-3-0-9-9-9"
     style="fill:#34f70f;fill-opacity:1;stroke-width:0.138004" />
  <path
     d="m 116.02814,641.73558 2.95741,10.01229 h 9.54259 l -7.7287,6.18705 2.9574,10.01229 -7.7287,-6.18704 -7.7287,6.18704 2.95741,-10.01229 -7.72871,-6.18705 h 9.54259 z"
     id="path810-3-0-9-9-9-4"
     style="fill:#009598;fill-opacity:1;stroke-width:0.138004" />
  <path
     d="m 305.59701,562.26732 2.95741,10.01229 h 9.54259 l -7.7287,6.18705 2.9574,10.01229 -7.7287,-6.18704 -7.7287,6.18704 2.95741,-10.01229 -7.72871,-6.18705 h 9.54259 z"
     id="path810-3-0-9-9-9-4-3"
     style="fill:#009598;fill-opacity:1;stroke-width:0.138004" />
  <path
     d="m 245.80975,788.42397 2.36593,8.00984 h 7.63407 l -6.18296,4.94963 2.36592,8.00983 -6.18296,-4.94963 -6.18296,4.94963 2.36593,-8.00983 -6.18297,-4.94963 h 7.63407 z"
     id="path810-3-0-9-9-9-4-2"
     style="fill:#009598;fill-opacity:1;stroke-width:0.110403" />
  <path
     d="m 530.01195,166.45298 2.36588,8.00981 h 7.63412 l -6.183,4.94967 2.366,8.00981 -6.183,-4.9496 -6.183,4.9496 2.366,-8.00981 -6.183,-4.94967 h 7.63412 z"
     id="path810-3-0-9-9-9-4-2-3"
     style="fill:#009598;fill-opacity:1;stroke-width:0.110404" />
  <path
     d="m 100.74627,233.5452 2.36588,8.00981 h 7.63412 l -6.183,4.94967 2.366,8.00981 -6.183,-4.9496 -6.183002,4.9496 2.366,-8.00981 -6.183,-4.94967 h 7.63412 z"
     id="path810-3-0-9-9-9-4-2-3-1"
     style="fill:#00db78;fill-opacity:1;stroke-width:0.110404" />
  <path
     d="m 513.80598,731.67954 2.36588,8.00981 h 7.63412 l -6.183,4.94967 2.366,8.00981 -6.183,-4.9496 -6.183,4.9496 2.366,-8.00981 -6.183,-4.94967 h 7.63412 z"
     id="path810-3-0-9-9-9-4-2-3-3"
     style="fill:#00db78;fill-opacity:1;stroke-width:0.110404" />
  <path
     d="m 582.08955,452.94819 2.36588,8.00981 h 7.63412 l -6.183,4.94967 2.366,8.00981 -6.183,-4.9496 -6.183,4.9496 2.366,-8.00981 -6.183,-4.94967 h 7.63412 z"
     id="path810-3-0-9-9-9-4-2-3-3-9"
     style="fill:#00db78;fill-opacity:1;stroke-width:0.110404" />
  <path
     d="m 81.716422,749.58998 2.36588,8.00981 h 7.63412 l -6.183,4.94967 2.366,8.00981 -6.183,-4.9496 -6.183,4.9496 2.366,-8.00981 -6.183,-4.94967 h 7.63412 z"
     id="path810-3-0-9-9-9-4-2-3-3-9-0"
     style="fill:#00db78;fill-opacity:1;stroke-width:0.110404" />
  <path
     d="m 380.59702,764.14222 2.36588,8.00981 h 7.63412 l -6.183,4.94967 2.366,8.00981 -6.183,-4.9496 -6.183,4.9496 2.366,-8.00981 -6.183,-4.94967 h 7.63412 z"
     id="path810-3-0-9-9-9-4-2-3-3-9-2"
     style="fill:#00db78;fill-opacity:1;stroke-width:0.110404" />
  <path
     d="m 189.20922,162.37596 2.95742,10.07218 h 9.54259 l -7.72871,6.22405 2.95742,10.07219 -7.72872,-6.22406 -7.7287,6.22406 2.95742,-10.07219 -7.72871,-6.22405 h 9.54258 z"
     id="path810-7"
     style="fill:#34f70f;fill-opacity:1;stroke-width:0.138417" />
  <path
     d="m 76.119389,441.2934 2.95742,10.07218 h 9.54259 l -7.72871,6.22405 2.95742,10.07219 -7.72872,-6.22406 -7.7287,6.22406 2.95742,-10.07219 -7.72871,-6.22405 h 9.54258 z"
     id="path810-7-41"
     style="fill:#34f70f;fill-opacity:1;stroke-width:0.138417" />
  <path
     d="m 613.43282,820.77101 2.95742,10.07218 h 9.54259 l -7.72871,6.22405 2.95742,10.07219 -7.72872,-6.22406 -7.7287,6.22406 2.95742,-10.07219 -7.72871,-6.22405 h 9.54258 z"
     id="path810-7-41-4"
     style="fill:#34f70f;fill-opacity:1;stroke-width:0.138417" />
  <path
     d="m 601.11939,373.00982 2.95742,10.07218 h 9.54259 l -7.72871,6.22405 2.95742,10.07219 -7.72872,-6.22406 -7.7287,6.22406 2.95742,-10.07219 -7.72871,-6.22405 h 9.54258 z"
     id="path810-7-41-4-6"
     style="fill:#34f70f;fill-opacity:1;stroke-width:0.138417" />
  <path
     d="m 559.17909,83.084444 1.77446,6.043308 h 5.72555 l -4.63723,3.73443 1.77446,6.043312 -4.63724,-3.734436 -4.63722,3.734436 1.77446,-6.043312 -4.63723,-3.73443 h 5.72555 z"
     id="path810-7-41-4-6-2"
     style="fill:#34f70f;fill-opacity:1;stroke-width:0.0830502" />
  <path
     d="m 455.597,233.88052 1.77446,6.04331 h 5.72555 l -4.63723,3.73443 1.77446,6.04331 -4.63724,-3.73443 -4.63722,3.73443 1.77446,-6.04331 -4.63723,-3.73443 h 5.72555 z"
     id="path810-7-41-4-6-2-7"
     style="fill:#00db78;fill-opacity:1;stroke-width:0.0830502" />
  <path
     d="m 252.98507,680.52231 1.77446,6.04331 h 5.72555 l -4.63723,3.73443 1.77446,6.04331 -4.63724,-3.73443 -4.63722,3.73443 1.77446,-6.04331 -4.63723,-3.73443 h 5.72555 z"
     id="path810-7-41-4-6-2-7-3"
     style="fill:#34f70f;fill-opacity:1;stroke-width:0.0830502" />
  <path
     d="m 233.95522,76.044695 1.77446,6.04331 h 5.72555 l -4.63723,3.73443 1.77446,6.04331 -4.63724,-3.73443 -4.63722,3.73443 1.77446,-6.04331 -4.63723,-3.73443 h 5.72555 z"
     id="path810-7-41-4-6-2-1"
     style="fill:#34f70f;fill-opacity:1;stroke-width:0.0830502" />
  <path
     d="m 521.36086,301.29135 3.78548,12.89239 h 12.21452 l -9.89275,7.96679 3.78549,12.89239 -9.89274,-7.96679 -9.89274,7.96679 3.78549,-12.89239 -9.89275,-7.96679 h 12.21451 z"
     id="path810-7-6"
     style="fill:#009598;fill-opacity:1;stroke-width:0.177173" />
  <path
     d="m 345.89551,261.06952 2.95742,10.07218 h 9.54259 l -7.72871,6.22405 2.95742,10.07219 -7.72872,-6.22406 -7.7287,6.22406 2.95742,-10.07219 -7.72871,-6.22405 h 9.54258 z"
     id="path810-7-4"
     style="fill:#34f70f;fill-opacity:1;stroke-width:0.138417" />
  <path
     d="m 147.76119,533.16284 2.95741,10.0123 h 9.54259 l -7.7287,6.18704 2.9574,10.01229 -7.7287,-6.18704 -7.7287,6.18704 2.95741,-10.01229 -7.72871,-6.18704 h 9.54259 z"
     id="path810-3-0-9-9-9-7"
     style="fill:#34f70f;fill-opacity:1;stroke-width:0.138004" />
  <path
     d="m 79.47761,91.381018 2.36593,8.00984 h 7.63407 l -6.18296,4.949632 2.36592,8.00983 -6.18296,-4.94963 -6.18296,4.94963 2.36593,-8.00983 -6.18297,-4.949632 h 7.63407 z"
     id="path810-3-0-9-9-7"
     style="fill:#009598;fill-opacity:1;stroke-width:0.110403" />
</svg>
