<svg id="visual" width="675" height="900" xmlns="http://www.w3.org/2000/svg" xmlns:xlink="http://www.w3.org/1999/xlink" version="1.1"><rect x="0" y="0" width="675" height="900" fill="#001220"></rect><path d="M247 0L248.2 18.8C249.3 37.7 251.7 75.3 252.7 112.8C253.7 150.3 253.3 187.7 254.3 225.2C255.3 262.7 257.7 300.3 257.2 337.8C256.7 375.3 253.3 412.7 257.5 450.2C261.7 487.7 273.3 525.3 272.5 562.8C271.7 600.3 258.3 637.7 255 675.2C251.7 712.7 258.3 750.3 258.3 787.8C258.3 825.3 251.7 862.7 248.3 881.3L245 900L0 900L0 881.3C0 862.7 0 825.3 0 787.8C0 750.3 0 712.7 0 675.2C0 637.7 0 600.3 0 562.8C0 525.3 0 487.7 0 450.2C0 412.7 0 375.3 0 337.8C0 300.3 0 262.7 0 225.2C0 187.7 0 150.3 0 112.8C0 75.3 0 37.7 0 18.8L0 0Z" fill="#f7460f"></path><path d="M197 0L203 18.8C209 37.7 221 75.3 220.2 112.8C219.3 150.3 205.7 187.7 207.8 225.2C210 262.7 228 300.3 234.2 337.8C240.3 375.3 234.7 412.7 231.8 450.2C229 487.7 229 525.3 223.7 562.8C218.3 600.3 207.7 637.7 203 675.2C198.3 712.7 199.7 750.3 201.2 787.8C202.7 825.3 204.3 862.7 205.2 881.3L206 900L0 900L0 881.3C0 862.7 0 825.3 0 787.8C0 750.3 0 712.7 0 675.2C0 637.7 0 600.3 0 562.8C0 525.3 0 487.7 0 450.2C0 412.7 0 375.3 0 337.8C0 300.3 0 262.7 0 225.2C0 187.7 0 150.3 0 112.8C0 75.3 0 37.7 0 18.8L0 0Z" fill="#f67b11"></path><path d="M136 0L143.8 18.8C151.7 37.7 167.3 75.3 168.2 112.8C169 150.3 155 187.7 149.8 225.2C144.7 262.7 148.3 300.3 156 337.8C163.7 375.3 175.3 412.7 179.5 450.2C183.7 487.7 180.3 525.3 177.8 562.8C175.3 600.3 173.7 637.7 171 675.2C168.3 712.7 164.7 750.3 167.3 787.8C170 825.3 179 862.7 183.5 881.3L188 900L0 900L0 881.3C0 862.7 0 825.3 0 787.8C0 750.3 0 712.7 0 675.2C0 637.7 0 600.3 0 562.8C0 525.3 0 487.7 0 450.2C0 412.7 0 375.3 0 337.8C0 300.3 0 262.7 0 225.2C0 187.7 0 150.3 0 112.8C0 75.3 0 37.7 0 18.8L0 0Z" fill="#f4a42f"></path><path d="M119 0L114.3 18.8C109.7 37.7 100.3 75.3 101.3 112.8C102.3 150.3 113.7 187.7 117.5 225.2C121.3 262.7 117.7 300.3 114.2 337.8C110.7 375.3 107.3 412.7 105.7 450.2C104 487.7 104 525.3 105.7 562.8C107.3 600.3 110.7 637.7 114.5 675.2C118.3 712.7 122.7 750.3 120.3 787.8C118 825.3 109 862.7 104.5 881.3L100 900L0 900L0 881.3C0 862.7 0 825.3 0 787.8C0 750.3 0 712.7 0 675.2C0 637.7 0 600.3 0 562.8C0 525.3 0 487.7 0 450.2C0 412.7 0 375.3 0 337.8C0 300.3 0 262.7 0 225.2C0 187.7 0 150.3 0 112.8C0 75.3 0 37.7 0 18.8L0 0Z" fill="#f1c757"></path><path d="M46 0L51 18.8C56 37.7 66 75.3 71.7 112.8C77.3 150.3 78.7 187.7 73 225.2C67.3 262.7 54.7 300.3 52.5 337.8C50.3 375.3 58.7 412.7 58.7 450.2C58.7 487.7 50.3 525.3 48.3 562.8C46.3 600.3 50.7 637.7 48.7 675.2C46.7 712.7 38.3 750.3 36.8 787.8C35.3 825.3 40.7 862.7 43.3 881.3L46 900L0 900L0 881.3C0 862.7 0 825.3 0 787.8C0 750.3 0 712.7 0 675.2C0 637.7 0 600.3 0 562.8C0 525.3 0 487.7 0 450.2C0 412.7 0 375.3 0 337.8C0 300.3 0 262.7 0 225.2C0 187.7 0 150.3 0 112.8C0 75.3 0 37.7 0 18.8L0 0Z" fill="#f1e785"></path></svg>